<?xml version="1.0" encoding="UTF-8" standalone="no"?>
<!DOCTYPE svg PUBLIC "-//W3C//DTD SVG 1.1//EN" "http://www.w3.org/Graphics/SVG/1.1/DTD/svg11.dtd">
<svg width="100%" height="100%" viewBox="0 0 1167 1167" version="1.1" xmlns="http://www.w3.org/2000/svg" xmlns:xlink="http://www.w3.org/1999/xlink" xml:space="preserve" xmlns:serif="http://www.serif.com/" style="fill-rule:evenodd;clip-rule:evenodd;stroke-linejoin:round;stroke-miterlimit:2;">
    <g id="Logo-New" serif:id="Logo New">
        <g id="Logo-New1" serif:id="Logo New">
            <g>
                <path d="M999.911,526.642C1007.44,524.808 1015.39,526.932 1020.98,532.282C1026.56,537.632 1029.02,545.456 1027.48,553.025C1004.05,668.265 929.486,1034.99 910.926,1126.29C910.297,1129.38 907.778,1131.75 904.64,1132.18C901.502,1132.61 898.431,1131.03 896.981,1128.22C868.166,1072.55 783.594,909.111 755.991,855.77C750.855,845.844 739.424,840.874 728.627,843.876C702.596,851.114 655.89,864.104 633.279,870.389C625.229,872.626 616.591,870.523 610.48,864.842C540.877,800.114 122.977,411.483 37.857,332.325C34.8,329.48 33.529,325.212 34.534,321.168C35.539,317.125 38.663,313.94 42.698,312.848C132.616,288.496 498.405,189.437 564.667,171.493C570.485,169.917 576.542,173.077 578.553,178.741C599.107,236.571 702.159,526.519 722.47,583.665C724.446,589.225 730.327,592.388 736.079,590.988C776.876,581.039 930.351,543.607 999.911,526.64L999.911,526.642ZM785.657,114.136C846.677,97.957 1020.18,51.959 1098.48,31.202C1106.72,29.015 1115.52,31.304 1121.64,37.232C1127.76,43.159 1130.31,51.854 1128.35,60.131C1110.94,133.665 1074.21,288.86 1063.01,336.205C1060.97,344.834 1054.35,351.66 1045.76,353.991C1006.58,364.62 895.053,394.881 844.526,408.592C837.98,410.368 830.985,409.335 825.238,405.742C819.491,402.146 815.518,396.322 814.274,389.674C803.584,332.394 778.034,195.514 768.031,141.937C765.709,129.504 773.391,117.388 785.657,114.136Z" style="fill:white;"/>
                <clipPath id="_clip1">
                    <path d="M999.911,526.642C1007.44,524.808 1015.39,526.932 1020.98,532.282C1026.56,537.632 1029.02,545.456 1027.48,553.025C1004.05,668.265 929.486,1034.99 910.926,1126.29C910.297,1129.38 907.778,1131.75 904.64,1132.18C901.502,1132.61 898.431,1131.03 896.981,1128.22C868.166,1072.55 783.594,909.111 755.991,855.77C750.855,845.844 739.424,840.874 728.627,843.876C702.596,851.114 655.89,864.104 633.279,870.389C625.229,872.626 616.591,870.523 610.48,864.842C540.877,800.114 122.977,411.483 37.857,332.325C34.8,329.48 33.529,325.212 34.534,321.168C35.539,317.125 38.663,313.94 42.698,312.848C132.616,288.496 498.405,189.437 564.667,171.493C570.485,169.917 576.542,173.077 578.553,178.741C599.107,236.571 702.159,526.519 722.47,583.665C724.446,589.225 730.327,592.388 736.079,590.988C776.876,581.039 930.351,543.607 999.911,526.64L999.911,526.642ZM785.657,114.136C846.677,97.957 1020.18,51.959 1098.48,31.202C1106.72,29.015 1115.52,31.304 1121.64,37.232C1127.76,43.159 1130.31,51.854 1128.35,60.131C1110.94,133.665 1074.21,288.86 1063.01,336.205C1060.97,344.834 1054.35,351.66 1045.76,353.991C1006.58,364.62 895.053,394.881 844.526,408.592C837.98,410.368 830.985,409.335 825.238,405.742C819.491,402.146 815.518,396.322 814.274,389.674C803.584,332.394 778.034,195.514 768.031,141.937C765.709,129.504 773.391,117.388 785.657,114.136Z"/>
                </clipPath>
                <g clip-path="url(#_clip1)">
                    <g transform="matrix(0.0497155,0,0,0.0497155,-2826.67,137.071)">
                        <rect x="56856.8" y="-2757.1" width="23473.6" height="23473.6" style="fill:rgb(0,36,125);"/>
                        <clipPath id="_clip2">
                            <rect x="56856.8" y="-2757.1" width="23473.6" height="23473.6"/>
                        </clipPath>
                        <g clip-path="url(#_clip2)">
                            <g transform="matrix(1,0,0,1,-1227.3,726.846)">
                                <rect x="67723.8" y="-3519.69" width="4194.26" height="23545" style="fill:white;"/>
                            </g>
                            <g transform="matrix(6.12323e-17,1,-1,6.12323e-17,76846.5,-60841.2)">
                                <rect x="67723.8" y="-3519.69" width="4194.26" height="23545" style="fill:white;"/>
                            </g>
                            <g transform="matrix(6.12323e-17,1,-1,6.12323e-17,76846.5,-60841.2)">
                                <rect x="67723.8" y="-3519.69" width="4194.26" height="23545" style="fill:white;"/>
                            </g>
                            <g transform="matrix(0.328848,0.529878,-1.47618,0.916131,56514.6,-34625.9)">
                                <rect x="67723.8" y="-3519.69" width="4194.26" height="23545" style="fill:white;"/>
                            </g>
                            <g transform="matrix(-0.328848,0.529878,1.47618,0.916131,79371.5,-35577.5)">
                                <rect x="67723.8" y="-3519.69" width="4194.26" height="23545" style="fill:white;"/>
                            </g>
                            <g transform="matrix(3.92644e-17,0.641237,-1,6.12323e-17,76846.5,-35792.1)">
                                <rect x="67723.8" y="-3519.69" width="4194.26" height="23545" style="fill:rgb(207,20,43);"/>
                            </g>
                            <g transform="matrix(0.641237,0,0,1,23821.9,726.846)">
                                <rect x="67723.8" y="-3519.69" width="4194.26" height="23545" style="fill:rgb(207,20,43);"/>
                            </g>
                        </g>
                    </g>
                </g>
                <path d="M999.911,526.642C1007.44,524.808 1015.39,526.932 1020.98,532.282C1026.56,537.632 1029.02,545.456 1027.48,553.025C1004.05,668.265 929.486,1034.99 910.926,1126.29C910.297,1129.38 907.778,1131.75 904.64,1132.18C901.502,1132.61 898.431,1131.03 896.981,1128.22C868.166,1072.55 783.594,909.111 755.991,855.77C750.855,845.844 739.424,840.874 728.627,843.876C702.596,851.114 655.89,864.104 633.279,870.389C625.229,872.626 616.591,870.523 610.48,864.842C540.877,800.114 122.977,411.483 37.857,332.325C34.8,329.48 33.529,325.212 34.534,321.168C35.539,317.125 38.663,313.94 42.698,312.848C132.616,288.496 498.405,189.437 564.667,171.493C570.485,169.917 576.542,173.077 578.553,178.741C599.107,236.571 702.159,526.519 722.47,583.665C724.446,589.225 730.327,592.388 736.079,590.988C776.876,581.039 930.351,543.607 999.911,526.64L999.911,526.642ZM785.657,114.136C846.677,97.957 1020.18,51.959 1098.48,31.202C1106.72,29.015 1115.52,31.304 1121.64,37.232C1127.76,43.159 1130.31,51.854 1128.35,60.131C1110.94,133.665 1074.21,288.86 1063.01,336.205C1060.97,344.834 1054.35,351.66 1045.76,353.991C1006.58,364.62 895.053,394.881 844.526,408.592C837.98,410.368 830.985,409.335 825.238,405.742C819.491,402.146 815.518,396.322 814.274,389.674C803.584,332.394 778.034,195.514 768.031,141.937C765.709,129.504 773.391,117.388 785.657,114.136Z" style="fill:none;stroke:black;stroke-width:26.03px;"/>
            </g>
        </g>
    </g>
</svg>
