<?xml version="1.0" encoding="UTF-8" standalone="no"?><!DOCTYPE svg PUBLIC "-//W3C//DTD SVG 1.1//EN" "http://www.w3.org/Graphics/SVG/1.1/DTD/svg11.dtd"><svg width="100%" height="100%" viewBox="0 0 280 280" version="1.1" xmlns="http://www.w3.org/2000/svg" xmlns:xlink="http://www.w3.org/1999/xlink" xml:space="preserve" xmlns:serif="http://www.serif.com/" style="fill-rule:evenodd;clip-rule:evenodd;stroke-linejoin:round;stroke-miterlimit:2;"><g id="Logo-New" serif:id="Logo New"><g><path d="M239.978,126.454c1.807,-0.44 3.715,0.07 5.056,1.354c1.341,1.285 1.93,3.164 1.56,4.981c-5.622,27.672 -23.518,115.731 -27.972,137.653c-0.151,0.743 -0.755,1.31 -1.509,1.415c-0.753,0.104 -1.49,-0.278 -1.838,-0.951c-6.915,-13.369 -27.213,-52.613 -33.837,-65.421c-1.233,-2.383 -3.976,-3.577 -6.568,-2.856c-6.247,1.738 -17.457,4.857 -22.883,6.366c-1.932,0.537 -4.005,0.033 -5.472,-1.332c-16.705,-15.542 -117,-108.86 -137.429,-127.868c-0.734,-0.683 -1.039,-1.708 -0.798,-2.679c0.241,-0.971 0.991,-1.736 1.96,-1.998c21.58,-5.847 109.369,-29.633 125.272,-33.942c1.397,-0.379 2.85,0.38 3.333,1.74c4.933,13.886 29.665,83.509 34.54,97.231c0.474,1.335 1.886,2.095 3.266,1.758c9.791,-2.389 46.625,-11.377 63.319,-15.451Z" style="fill:#fff;stroke:#000;stroke-width:4.17px;"/></g><g><path d="M188.558,27.403c-2.944,0.781 -4.787,3.69 -4.23,6.675c2.4,12.865 8.533,45.733 11.098,59.487c0.299,1.596 1.252,2.995 2.631,3.859c1.38,0.862 3.058,1.11 4.629,0.684c12.127,-3.292 38.894,-10.559 48.296,-13.111c2.061,-0.56 3.651,-2.199 4.141,-4.271c2.688,-11.368 11.504,-48.634 15.681,-66.291c0.47,-1.987 -0.141,-4.075 -1.611,-5.499c-1.468,-1.423 -3.579,-1.973 -5.559,-1.447c-18.791,4.984 -60.431,16.029 -75.076,19.914Z" style="fill:#fff;stroke:#000;stroke-width:4.17px;"/></g></g></svg>