<?xml version="1.0" encoding="UTF-8" standalone="no"?><!DOCTYPE svg PUBLIC "-//W3C//DTD SVG 1.1//EN" "http://www.w3.org/Graphics/SVG/1.1/DTD/svg11.dtd"><svg width="100%" height="100%" viewBox="0 0 41667 15750" version="1.1" xmlns="http://www.w3.org/2000/svg" xmlns:xlink="http://www.w3.org/1999/xlink" xml:space="preserve" xmlns:serif="http://www.serif.com/" style="fill-rule:evenodd;clip-rule:evenodd;stroke-linejoin:round;stroke-miterlimit:2;"><g><g><text x="14961px" y="7874.05px" style="font-family:'Montserrat-Bold', 'Montserrat';font-weight:700;font-size:4809.37px;fill:#fff;">Nic</text><text x="23103.3px" y="7874.05px" style="font-family:'Montserrat-Bold', 'Montserrat';font-weight:700;font-size:4809.37px;fill:#fff;">olas</text></g></g><g><text x="16423.1px" y="12283px" style="font-family:'Montserrat-Bold', 'Montserrat';font-weight:700;font-size:4809.37px;fill:#fff;">Heider</text></g><g id="Logo-New" serif:id="Logo New"><g><path d="M12021.4,7672.59c90.934,-22.232 186.911,3.525 254.42,68.377c67.455,64.852 97.116,159.69 78.517,251.437c-282.942,1396.92 -1183.5,5842.33 -1407.66,6948.99c-7.591,37.523 -38.011,66.153 -75.913,71.413c-37.903,5.26 -74.992,-13.99 -92.507,-47.988c-348.011,-674.874 -1369.43,-2656.01 -1702.8,-3302.58c-62.033,-120.324 -200.088,-180.567 -330.497,-144.182c-314.391,87.734 -878.485,245.201 -1151.56,321.386c-97.224,27.112 -201.552,1.627 -275.351,-67.238c-840.637,-784.623 -5887.82,-5495.51 -6915.86,-6455.06c-36.916,-34.487 -52.277,-86.217 -40.136,-135.236c12.14,-49.018 49.875,-87.626 98.606,-100.856c1085.98,-295.197 5503.8,-1495.96 6304.09,-1713.48c70.274,-19.103 143.423,19.201 167.715,87.859c248.239,700.999 1492.85,4215.7 1738.16,4908.41c23.859,67.4 94.892,105.737 164.353,88.765c492.735,-120.595 2346.33,-574.343 3186.43,-780.015Z" style="fill:#fff;"/></g><g><path d="M9433.76,2672.29c-148.14,39.415 -240.918,186.282 -212.884,336.992c120.812,649.454 429.402,2308.68 558.509,3003.02c15.02,80.577 63.009,151.177 132.416,194.774c69.407,43.542 153.888,56.067 232.947,34.54c610.238,-166.197 1957.22,-533.023 2430.38,-661.86c103.731,-28.251 183.712,-110.997 208.384,-215.595c135.289,-573.914 578.897,-2455.14 789.124,-3346.51c23.642,-100.341 -7.104,-205.737 -81.065,-277.584c-73.908,-71.852 -180.133,-99.604 -279.743,-73.094c-945.615,251.616 -3041.11,809.209 -3778.07,1005.32Z" style="fill:#fff;"/></g></g></svg>