<?xml version="1.0" encoding="UTF-8" standalone="no"?>
<!DOCTYPE svg PUBLIC "-//W3C//DTD SVG 1.1//EN" "http://www.w3.org/Graphics/SVG/1.1/DTD/svg11.dtd">
<svg width="100%" height="100%" viewBox="0 0 8032 3780" version="1.1" xmlns="http://www.w3.org/2000/svg" xmlns:xlink="http://www.w3.org/1999/xlink" xml:space="preserve" xmlns:serif="http://www.serif.com/" style="fill-rule:evenodd;clip-rule:evenodd;stroke-linejoin:round;stroke-miterlimit:2;">
    <g transform="matrix(1.137,0,0,1.137,-1907.45,-2025.5)">
        <g transform="matrix(1015.17,0,0,1015.17,8690.21,3443.51)">
        </g>
        <text x="4835.62px" y="3443.51px" style="font-family:'Montserrat-Bold', 'Montserrat';font-weight:700;font-size:1015.17px;fill:rgb(88,88,88);">Nic<tspan x="6554.3px " y="3443.51px ">o</tspan>las</text>
    </g>
    <g transform="matrix(1.137,0,0,1.137,-1556.56,-967.342)">
        <g transform="matrix(1015.17,0,0,1015.17,8382.62,3443.51)">
        </g>
        <text x="4835.62px" y="3443.51px" style="font-family:'Montserrat-Bold', 'Montserrat';font-weight:700;font-size:1015.17px;fill:rgb(88,88,88);">Heider</text>
    </g>
    <g id="Logo-New" serif:id="Logo New" transform="matrix(1.30138,0,0,1.30138,-187.457,-111.468)">
        <g transform="matrix(1,0,0,1,-37.5641,-37.5)">
            <path d="M2398.59,1538.13C2415.36,1534.03 2433.06,1538.78 2445.51,1550.74C2457.95,1562.7 2463.42,1580.19 2459.99,1597.11C2407.81,1854.73 2241.73,2674.55 2200.39,2878.64C2198.99,2885.56 2193.38,2890.84 2186.39,2891.81C2179.4,2892.78 2172.56,2889.23 2169.33,2882.96C2105.15,2758.5 1916.78,2393.14 1855.3,2273.9C1843.86,2251.71 1818.4,2240.6 1794.35,2247.31C1736.37,2263.49 1632.34,2292.53 1581.98,2306.58C1564.05,2311.58 1544.81,2306.88 1531.2,2294.18C1376.17,2149.48 445.37,1280.7 255.779,1103.74C248.971,1097.38 246.138,1087.84 248.377,1078.8C250.616,1069.76 257.575,1062.64 266.562,1060.2C466.838,1005.76 1281.57,784.315 1429.16,744.2C1442.12,740.677 1455.61,747.741 1460.09,760.403C1505.87,889.681 1735.4,1537.86 1780.64,1665.61C1785.04,1678.04 1798.14,1685.11 1810.95,1681.98C1901.82,1659.74 2243.66,1576.06 2398.59,1538.13Z" style="fill:rgb(88,88,88);"/>
        </g>
        <g transform="matrix(1,0,0,1,-138.674,0)">
            <path d="M2022.49,578.476C1995.17,585.745 1978.06,612.83 1983.23,640.624C2005.51,760.396 2062.42,1066.39 2086.23,1194.44C2089,1209.3 2097.85,1222.32 2110.65,1230.36C2123.45,1238.39 2139.03,1240.7 2153.61,1236.73C2266.15,1206.08 2514.56,1138.43 2601.82,1114.67C2620.95,1109.46 2635.7,1094.2 2640.25,1074.91C2665.2,969.069 2747.01,622.135 2785.78,457.748C2790.14,439.243 2784.47,419.806 2770.83,406.556C2757.2,393.305 2737.61,388.187 2719.24,393.076C2544.85,439.479 2158.4,542.31 2022.49,578.476Z" style="fill:rgb(39,37,37);"/>
        </g>
    </g>
</svg>
