<?xml version="1.0" encoding="UTF-8" standalone="no"?><!DOCTYPE svg PUBLIC "-//W3C//DTD SVG 1.1//EN" "http://www.w3.org/Graphics/SVG/1.1/DTD/svg11.dtd"><svg width="100%" height="100%" viewBox="0 0 173613 65625" version="1.1" xmlns="http://www.w3.org/2000/svg" xmlns:xlink="http://www.w3.org/1999/xlink" xml:space="preserve" xmlns:serif="http://www.serif.com/" style="fill-rule:evenodd;clip-rule:evenodd;stroke-linejoin:round;stroke-miterlimit:2;"><g><g><text x="62337.5px" y="32808.5px" style="font-family:'Montserrat-Bold', 'Montserrat';font-weight:700;font-size:20039px;fill:#fff;">Nic</text><text x="96263.8px" y="32808.5px" style="font-family:'Montserrat-Bold', 'Montserrat';font-weight:700;font-size:20039px;fill:#fff;">olas</text></g></g><g><text x="68429.6px" y="51179.2px" style="font-family:'Montserrat-Bold', 'Montserrat';font-weight:700;font-size:20039px;fill:#fff;">Heider</text></g><g id="Logo-New" serif:id="Logo New"><g><path d="M38399.5,47246.7c-1309.96,365.558 -5622.56,1766.87 -6760.37,2084.31c-405.1,112.966 -839.8,6.779 -1147.3,-280.159c-3502.65,-3269.26 -24532.6,-22898 -28816.1,-26896.1c-153.817,-143.696 -217.821,-359.238 -167.234,-563.483c50.584,-204.242 207.813,-365.109 410.859,-420.234c4524.92,-1229.99 22932.5,-6233.17 26267,-7139.5c292.809,-79.596 597.596,80.004 698.813,366.079c1034.33,2920.83 6756.4,18876.1 7778.53,21762.4" style="fill:#f00;"/><path d="M32737.3,37831.3c-150.997,-305.355 -156.367,-662.494 -14.619,-972.252c141.748,-309.757 415.523,-539.156 745.308,-624.501c3704.62,-960.009 13948.1,-3610.95 16621.3,-4265.38l-0.029,-0.008c378.891,-92.633 778.796,14.688 1060.08,284.904c281.063,270.217 404.65,665.375 327.154,1047.65c-1178.92,5820.5 -4931.25,24343 -5865.25,28954.1c-31.629,156.346 -158.379,275.638 -316.304,297.555c-157.929,21.916 -312.467,-58.292 -385.446,-199.95c-1245.67,-2415.64 -9788.7,-19698.3 -12172.2,-24522.2Z" style="fill:#009dff;"/></g><g><path d="M39307.3,11134.5c-617.25,164.229 -1003.83,776.175 -887.016,1404.13c503.383,2706.06 1789.17,9619.5 2327.12,12512.6c62.583,335.738 262.537,629.904 551.733,811.559c289.196,181.425 641.2,233.612 970.612,143.916c2542.66,-692.487 8155.08,-2220.93 10126.6,-2757.75c432.212,-117.712 765.466,-462.487 868.266,-898.312c563.705,-2391.31 2412.07,-10229.8 3288.02,-13943.8c98.508,-418.087 -29.6,-857.237 -337.771,-1156.6c-307.95,-299.383 -750.554,-415.017 -1165.6,-304.558c-3940.06,1048.4 -12671.3,3371.7 -15742,4188.83l0.008,-0.012Z" style="fill:#ff0;"/></g></g></svg>