<?xml version="1.0" encoding="UTF-8" standalone="no"?><!DOCTYPE svg PUBLIC "-//W3C//DTD SVG 1.1//EN" "http://www.w3.org/Graphics/SVG/1.1/DTD/svg11.dtd"><svg width="100%" height="100%" viewBox="0 0 1167 1167" version="1.1" xmlns="http://www.w3.org/2000/svg" xmlns:xlink="http://www.w3.org/1999/xlink" xml:space="preserve" xmlns:serif="http://www.serif.com/" style="fill-rule:evenodd;clip-rule:evenodd;stroke-linejoin:round;stroke-miterlimit:2;"><g><g><circle cx="581.596" cy="544.788" r="444.3" style="fill:#6c757d;"/><g><path id="XMLID_802_" d="M507.771,487.675l-69.134,0c-3.066,0 -5.554,2.313 -5.554,5.167l0,206.6c0,2.854 2.488,5.166 5.554,5.166l69.134,0c3.067,0 5.554,-2.312 5.554,-5.166l0,-206.6c0,-2.855 -2.488,-5.167 -5.554,-5.167Z" style="fill:#fff;fill-rule:nonzero;"/><path id="XMLID_803_" d="M473.229,384.967c-25.154,-0 -45.616,19.016 -45.616,42.391c-0,23.384 20.462,42.409 45.616,42.409c25.134,-0 45.584,-19.025 45.584,-42.409c-0,-23.375 -20.45,-42.391 -45.584,-42.391Z" style="fill:#fff;fill-rule:nonzero;"/><path id="XMLID_804_" d="M683.617,482.538c-27.767,-0 -48.292,11.104 -60.742,23.72l0,-13.416c0,-2.855 -2.487,-5.167 -5.554,-5.167l-66.208,0c-3.067,0 -5.555,2.313 -5.555,5.167l0,206.6c0,2.854 2.488,5.166 5.554,5.166l68.984,0c3.066,0 5.554,-2.312 5.554,-5.166l0,-102.221c0,-34.446 10.058,-47.863 35.871,-47.863c28.108,0 30.346,21.513 30.346,49.638l-0,100.446c-0,2.854 2.483,5.166 5.554,5.166l69.004,0c3.071,0 5.554,-2.312 5.554,-5.166l0,-113.325c0,-51.217 -10.496,-103.58 -88.362,-103.58Z" style="fill:#fff;fill-rule:nonzero;"/></g></g></g></svg>