<?xml version="1.0" encoding="UTF-8" standalone="no"?><!DOCTYPE svg PUBLIC "-//W3C//DTD SVG 1.1//EN" "http://www.w3.org/Graphics/SVG/1.1/DTD/svg11.dtd"><svg width="100%" height="100%" viewBox="0 0 1167 1167" version="1.1" xmlns="http://www.w3.org/2000/svg" xmlns:xlink="http://www.w3.org/1999/xlink" xml:space="preserve" xmlns:serif="http://www.serif.com/" style="fill-rule:evenodd;clip-rule:evenodd;stroke-linejoin:round;stroke-miterlimit:2;"><g id="Logo-New" serif:id="Logo New"><g id="Logo-New1" serif:id="Logo New"><g><path d="M999.911,526.642c7.529,-1.834 15.476,0.29 21.066,5.64c5.585,5.35 8.041,13.174 6.501,20.743c-23.427,115.24 -97.992,481.968 -116.552,573.264c-0.629,3.095 -3.148,5.457 -6.286,5.891c-3.138,0.434 -6.209,-1.154 -7.659,-3.959c-28.815,-55.674 -113.387,-219.11 -140.99,-272.451c-5.136,-9.926 -16.567,-14.896 -27.364,-11.894c-26.031,7.238 -72.737,20.228 -95.348,26.513c-8.05,2.237 -16.688,0.134 -22.799,-5.547c-69.603,-64.728 -487.503,-453.359 -572.623,-532.517c-3.057,-2.845 -4.328,-7.113 -3.323,-11.157c1.005,-4.043 4.129,-7.228 8.164,-8.32c89.918,-24.352 455.707,-123.411 521.969,-141.355c5.818,-1.576 11.875,1.584 13.886,7.248c20.554,57.83 123.606,347.778 143.917,404.924c1.976,5.56 7.857,8.723 13.609,7.323c40.797,-9.949 194.272,-47.381 263.832,-64.348l-0.001,-0l0.001,0.002Z" style="fill:#fff;stroke:#000;stroke-width:26.03px;"/></g><g><path d="M785.657,114.136c-12.266,3.252 -19.948,15.368 -17.626,27.801c10.003,53.577 35.553,190.457 46.243,247.737c1.244,6.648 5.217,12.472 10.964,16.068c5.747,3.593 12.742,4.626 19.288,2.85c50.527,-13.711 162.055,-43.972 201.232,-54.601c8.589,-2.331 15.211,-9.157 17.254,-17.786c11.202,-47.345 47.932,-202.54 65.338,-276.074c1.958,-8.277 -0.588,-16.972 -6.712,-22.899c-6.119,-5.928 -14.914,-8.217 -23.162,-6.03c-78.296,20.757 -251.8,66.756 -312.82,82.935l0.001,-0.001l0,0Z" style="fill:#fff;stroke:#000;stroke-width:26.03px;"/></g></g></g></svg>