<?xml version="1.0" encoding="UTF-8" standalone="no"?><!DOCTYPE svg PUBLIC "-//W3C//DTD SVG 1.1//EN" "http://www.w3.org/Graphics/SVG/1.1/DTD/svg11.dtd"><svg width="100%" height="100%" viewBox="0 0 173613 65625" version="1.1" xmlns="http://www.w3.org/2000/svg" xmlns:xlink="http://www.w3.org/1999/xlink" xml:space="preserve" xmlns:serif="http://www.serif.com/" style="fill-rule:evenodd;clip-rule:evenodd;stroke-linejoin:round;stroke-miterlimit:2;"><g><g><g><path d="M76865.8,18781.2l0,14027.3l-2665.19,-0l-6993.63,-8516.59l0,8516.59l-3206.25,-0l0,-14027.3l2685.23,-0l6973.59,8516.59l-0,-8516.59l3206.25,-0Z" style="fill:#fff;fill-rule:nonzero;"/><path d="M79971.9,22027.5l3126.09,0l0,10781l-3126.09,-0l-0,-10781Zm1563.05,-1502.93c-574.452,0 -1042.03,-166.992 -1402.73,-500.976c-360.703,-333.984 -541.054,-748.124 -541.054,-1242.42c-0,-494.297 180.351,-908.437 541.054,-1242.42c360.703,-333.984 828.281,-500.976 1402.73,-500.976c574.453,-0 1042.03,160.312 1402.73,480.937c360.703,320.625 541.054,721.405 541.054,1202.34c-0,521.015 -180.351,951.855 -541.054,1292.52c-360.703,340.663 -828.28,510.995 -1402.73,510.995Z" style="fill:#fff;fill-rule:nonzero;"/><path d="M91213.8,32968.9c-1148.9,-0 -2180.92,-237.129 -3096.03,-711.386c-915.116,-474.257 -1629.84,-1132.21 -2144.18,-1973.85c-514.336,-841.639 -771.503,-1796.83 -771.503,-2865.58c-0,-1068.75 257.167,-2023.94 771.503,-2865.58c514.335,-841.64 1229.06,-1499.59 2144.18,-1973.85c915.116,-474.258 1947.13,-711.386 3096.03,-711.386c1135.55,-0 2127.48,237.128 2975.8,711.386c848.319,474.257 1466.19,1152.25 1853.61,2033.96l-2424.72,1302.54c-561.093,-988.593 -1369.33,-1482.89 -2424.72,-1482.89c-814.921,0 -1489.57,267.187 -2023.94,801.562c-534.374,534.374 -801.562,1262.46 -801.562,2184.26c0,921.796 267.188,1649.88 801.562,2184.26c534.374,534.374 1209.02,801.562 2023.94,801.562c1068.75,-0 1876.99,-494.297 2424.72,-1482.89l2424.72,1322.58c-387.421,854.999 -1005.29,1522.97 -1853.61,2003.9c-848.32,480.937 -1840.25,721.406 -2975.8,721.406Z" style="fill:#fff;fill-rule:nonzero;"/></g><g><path d="M102837,32968.9c-1135.55,-0 -2154.2,-237.129 -3055.95,-711.386c-901.757,-474.257 -1606.46,-1132.21 -2114.12,-1973.85c-507.656,-841.639 -761.484,-1796.83 -761.484,-2865.58c0,-1068.75 253.828,-2023.94 761.484,-2865.58c507.656,-841.64 1212.36,-1499.59 2114.12,-1973.85c901.757,-474.258 1920.41,-711.386 3055.95,-711.386c1135.55,-0 2150.86,237.128 3045.93,711.386c895.077,474.257 1596.44,1132.21 2104.1,1973.85c507.656,841.639 761.484,1796.83 761.484,2865.58c-0,1068.75 -253.828,2023.94 -761.484,2865.58c-507.655,841.64 -1209.02,1499.59 -2104.1,1973.85c-895.077,474.257 -1910.39,711.386 -3045.93,711.386Zm-0,-2565c801.561,-0 1459.51,-270.527 1973.85,-811.582c514.336,-541.054 771.503,-1265.8 771.503,-2174.24c0,-908.436 -257.167,-1633.18 -771.503,-2174.24c-514.335,-541.054 -1172.28,-811.581 -1973.85,-811.581c-801.562,0 -1462.85,270.527 -1983.87,811.581c-521.016,541.055 -781.523,1265.8 -781.523,2174.24c-0,908.437 260.507,1633.18 781.523,2174.24c521.015,541.055 1182.3,811.582 1983.87,811.582Z" style="fill:#fff;fill-rule:nonzero;"/><rect x="110832" y="17939.6" width="3126.09" height="14869" style="fill:#fff;fill-rule:nonzero;"/><path d="M121212,21867.2c1669.92,-0 2952.42,397.441 3847.5,1192.32c895.077,794.882 1342.62,1993.88 1342.62,3597.01l-0,6151.99l-2925.7,-0l-0,-1342.62c-587.812,1001.95 -1683.28,1502.93 -3286.4,1502.93c-828.281,-0 -1546.35,-140.274 -2154.2,-420.82c-607.851,-280.546 -1072.09,-667.968 -1392.71,-1162.26c-320.624,-494.297 -480.937,-1055.39 -480.937,-1683.28c0,-1001.95 377.403,-1790.15 1132.21,-2364.61c754.804,-574.452 1920.41,-861.678 3496.81,-861.678l2484.84,-0c0,-681.328 -207.07,-1205.68 -621.21,-1573.07c-414.14,-367.383 -1035.35,-551.074 -1863.63,-551.074c-574.452,0 -1138.88,90.176 -1693.3,270.527c-554.413,180.352 -1025.33,424.16 -1412.75,731.425l-1122.19,-2184.26c587.812,-414.141 1292.52,-734.765 2114.12,-961.874c821.601,-227.11 1666.58,-340.664 2534.94,-340.664Zm-240.469,8997.53c534.375,-0 1008.63,-123.575 1422.77,-370.723c414.141,-247.148 708.047,-611.19 881.718,-1092.13l0,-1102.15l-2144.18,0c-1282.5,0 -1923.75,420.82 -1923.75,1262.46c-0,400.781 156.972,718.065 470.917,951.854c313.945,233.789 744.785,350.684 1292.52,350.684Z" style="fill:#fff;fill-rule:nonzero;"/><path d="M132855,32968.9c-895.077,-0 -1770.12,-110.215 -2625.11,-330.644c-854.999,-220.43 -1536.33,-497.637 -2043.98,-831.62l1042.03,-2244.37c480.937,307.265 1062.07,557.753 1743.4,751.464c681.328,193.711 1349.3,290.566 2003.9,290.566c1322.58,0 1983.87,-327.304 1983.87,-981.913c0,-307.265 -180.351,-527.695 -541.054,-661.288c-360.702,-133.594 -915.116,-247.149 -1663.24,-340.664c-881.718,-133.594 -1609.8,-287.227 -2184.26,-460.898c-574.452,-173.672 -1072.09,-480.937 -1492.91,-921.796c-420.82,-440.859 -631.23,-1068.75 -631.23,-1883.67c-0,-681.327 197.051,-1285.84 591.152,-1813.53c394.101,-527.695 968.554,-938.495 1723.36,-1232.4c754.804,-293.906 1646.54,-440.859 2675.21,-440.859c761.484,-0 1519.63,83.496 2274.43,250.488c754.804,166.992 1379.35,397.441 1873.65,691.347l-1042.03,2224.33c-948.515,-534.375 -1983.87,-801.562 -3106.05,-801.562c-667.968,-0 -1168.94,93.515 -1502.93,280.546c-333.984,187.031 -500.976,427.5 -500.976,721.406c0,333.984 180.351,567.773 541.054,701.366c360.703,133.594 935.156,260.508 1723.36,380.742c881.718,146.953 1603.12,303.925 2164.22,470.918c561.093,166.992 1048.71,470.917 1462.85,911.776c414.141,440.859 621.211,1055.39 621.211,1843.59c-0,667.968 -200.391,1262.46 -601.172,1783.48c-400.78,521.015 -985.252,925.135 -1753.42,1212.36c-768.163,287.225 -1679.94,430.839 -2735.33,430.839Z" style="fill:#fff;fill-rule:nonzero;"/></g></g></g><g><g><path d="M82957.9,37151.8l-0,14027.3l-3246.33,-0l-0,-5751.2l-6372.41,-0l-0,5751.2l-3246.33,-0l-0,-14027.3l3246.33,-0l-0,5530.78l6372.41,0l-0,-5530.78l3246.33,-0Z" style="fill:#fff;fill-rule:nonzero;"/><path d="M96624.5,45828.7c-0,40.078 -20.039,320.624 -60.117,841.639l-8155.89,0c146.953,667.968 494.296,1195.66 1042.03,1583.09c547.734,387.421 1229.06,581.132 2043.98,581.132c561.093,-0 1058.73,-83.496 1492.91,-250.488c434.179,-166.992 838.3,-430.84 1212.36,-791.542l1663.24,1803.51c-1015.31,1162.27 -2498.2,1743.4 -4448.67,1743.4c-1215.7,-0 -2291.13,-237.129 -3226.29,-711.386c-935.155,-474.257 -1656.56,-1132.21 -2164.22,-1973.85c-507.656,-841.639 -761.484,-1796.83 -761.484,-2865.58c0,-1055.39 250.488,-2007.24 751.464,-2855.56c500.976,-848.32 1188.98,-1509.61 2064.02,-1983.87c875.038,-474.258 1853.61,-711.386 2935.72,-711.386c1055.39,-0 2010.58,227.109 2865.58,681.327c854.999,454.218 1526.31,1105.49 2013.92,1953.81c487.617,848.319 731.425,1833.57 731.425,2955.76Zm-5590.89,-3226.29c-708.046,-0 -1302.54,200.39 -1783.47,601.171c-480.937,400.781 -774.843,948.515 -881.718,1643.2l5310.35,-0c-106.875,-681.328 -400.781,-1225.72 -881.718,-1633.18c-480.937,-407.461 -1068.75,-611.191 -1763.44,-611.191Z" style="fill:#fff;fill-rule:nonzero;"/><path d="M98708.6,40398.2l3126.09,0l-0,10781l-3126.09,-0l0,-10781Zm1563.05,-1502.93c-574.453,0 -1042.03,-166.992 -1402.73,-500.976c-360.703,-333.984 -541.055,-748.124 -541.055,-1242.42c0,-494.297 180.352,-908.437 541.055,-1242.42c360.702,-333.984 828.28,-500.976 1402.73,-500.976c574.452,-0 1042.03,160.312 1402.73,480.937c360.703,320.625 541.055,721.405 541.055,1202.34c-0,521.015 -180.352,951.855 -541.055,1292.52c-360.702,340.663 -828.28,510.995 -1402.73,510.995Z" style="fill:#fff;fill-rule:nonzero;"/><path d="M115722,36310.2l-0,14869l-2985.82,-0l0,-1242.42c-774.842,935.155 -1897.03,1402.73 -3366.56,1402.73c-1015.31,-0 -1933.77,-227.109 -2755.37,-681.327c-821.6,-454.219 -1466.19,-1102.15 -1933.77,-1943.79c-467.578,-841.64 -701.367,-1816.87 -701.367,-2925.7c0,-1108.83 233.789,-2084.06 701.367,-2925.7c467.578,-841.639 1112.17,-1489.57 1933.77,-1943.79c821.601,-454.218 1740.06,-681.327 2755.37,-681.327c1376.02,-0 2451.44,434.179 3226.29,1302.54l0,-5230.19l3126.09,-0Zm-5811.32,12464.3c788.202,-0 1442.81,-270.527 1963.83,-811.582c521.015,-541.054 781.522,-1265.8 781.522,-2174.24c0,-908.436 -260.507,-1633.18 -781.522,-2174.24c-521.015,-541.054 -1175.62,-811.581 -1963.83,-811.581c-801.562,0 -1462.85,270.527 -1983.87,811.581c-521.015,541.055 -781.522,1265.8 -781.522,2174.24c-0,908.437 260.507,1633.18 781.522,2174.24c521.016,541.055 1182.3,811.582 1983.87,811.582Z" style="fill:#fff;fill-rule:nonzero;"/><path d="M129168,45828.7c-0,40.078 -20.039,320.624 -60.118,841.639l-8155.89,0c146.953,667.968 494.296,1195.66 1042.03,1583.09c547.734,387.421 1229.06,581.132 2043.98,581.132c561.093,-0 1058.73,-83.496 1492.91,-250.488c434.179,-166.992 838.3,-430.84 1212.36,-791.542l1663.24,1803.51c-1015.31,1162.27 -2498.2,1743.4 -4448.67,1743.4c-1215.7,-0 -2291.13,-237.129 -3226.29,-711.386c-935.155,-474.257 -1656.56,-1132.21 -2164.22,-1973.85c-507.656,-841.639 -761.484,-1796.83 -761.484,-2865.58c-0,-1055.39 250.488,-2007.24 751.464,-2855.56c500.976,-848.32 1188.98,-1509.61 2064.02,-1983.87c875.039,-474.258 1853.61,-711.386 2935.72,-711.386c1055.39,-0 2010.58,227.109 2865.58,681.327c854.999,454.218 1526.31,1105.49 2013.92,1953.81c487.616,848.319 731.425,1833.57 731.425,2955.76Zm-5590.89,-3226.29c-708.046,-0 -1302.54,200.39 -1783.48,601.171c-480.937,400.781 -774.842,948.515 -881.718,1643.2l5310.35,-0c-106.874,-681.328 -400.78,-1225.72 -881.717,-1633.18c-480.937,-407.461 -1068.75,-611.191 -1763.44,-611.191Z" style="fill:#fff;fill-rule:nonzero;"/><path d="M134238,41820.9c374.062,-521.015 878.378,-915.116 1512.95,-1182.3c634.57,-267.188 1366,-400.781 2194.28,-400.781l-0,2885.62c-347.343,-26.719 -581.132,-40.078 -701.367,-40.078c-895.077,-0 -1596.44,250.488 -2104.1,751.464c-507.656,500.976 -761.484,1252.44 -761.484,2254.39l0,5089.92l-3126.09,-0l-0,-10781l2985.82,0l0,1422.77Z" style="fill:#fff;fill-rule:nonzero;"/></g></g><g id="Logo-New" serif:id="Logo New"><g><path d="M50089.2,31969.1c378.891,-92.633 778.796,14.688 1060.08,284.904c281.063,270.217 404.65,665.375 327.154,1047.65c-1178.92,5820.5 -4931.25,24343 -5865.25,28954.1c-31.629,156.346 -158.379,275.638 -316.304,297.555c-157.929,21.916 -312.467,-58.292 -385.446,-199.95c-1450.05,-2811.97 -5705.96,-11066.7 -7095,-13760.8c-258.471,-501.35 -833.7,-752.363 -1377.07,-600.759c-1309.96,365.559 -3660.35,1021.67 -4798.17,1339.11c-405.1,112.966 -839.8,6.779 -1147.3,-280.159c-3502.65,-3269.26 -24532.6,-22898 -28816.1,-26896.1c-153.817,-143.696 -217.821,-359.238 -167.234,-563.483c50.584,-204.242 207.813,-365.109 410.859,-420.234c4524.92,-1229.99 22932.5,-6233.17 26267,-7139.5c292.809,-79.596 597.596,80.004 698.813,366.079c1034.33,2920.83 6220.21,17565.4 7242.33,20451.7c99.413,280.833 395.383,440.571 684.804,369.854c2053.06,-502.479 9776.38,-2393.1 13276.8,-3250.06l-0.029,-0.008Z" style="fill:#fff;"/></g><g><path d="M39307.3,11134.5c-617.25,164.229 -1003.83,776.175 -887.016,1404.13c503.383,2706.06 1789.17,9619.5 2327.12,12512.6c62.583,335.738 262.537,629.904 551.733,811.559c289.196,181.425 641.2,233.612 970.612,143.916c2542.66,-692.487 8155.08,-2220.93 10126.6,-2757.75c432.212,-117.712 765.466,-462.487 868.266,-898.312c563.705,-2391.31 2412.07,-10229.8 3288.02,-13943.8c98.508,-418.087 -29.6,-857.237 -337.771,-1156.6c-307.95,-299.383 -750.554,-415.017 -1165.6,-304.558c-3940.06,1048.4 -12671.3,3371.7 -15742,4188.83l0.008,-0.012Z" style="fill:#fff;"/></g></g></svg>