<?xml version="1.0" encoding="UTF-8" standalone="no"?><!DOCTYPE svg PUBLIC "-//W3C//DTD SVG 1.1//EN" "http://www.w3.org/Graphics/SVG/1.1/DTD/svg11.dtd"><svg width="100%" height="100%" viewBox="0 0 723388 273438" version="1.1" xmlns="http://www.w3.org/2000/svg" xmlns:xlink="http://www.w3.org/1999/xlink" xml:space="preserve" xmlns:serif="http://www.serif.com/" style="fill-rule:evenodd;clip-rule:evenodd;stroke-linejoin:round;stroke-miterlimit:2;"><g><g><g><path d="M320274,78255l-0,58447.1l-11105,0l-29140.1,-35485.8l0,35485.8l-13359.4,0l0,-58447.1l11188.5,0l29056.6,35485.8l-0,-35485.8l13359.4,0Z" style="fill:#fff;fill-rule:nonzero;"/><path d="M333216,91781.2l13025.4,0l0,44920.8l-13025.4,0l0,-44920.8Zm6512.71,-6262.21c-2393.55,-0 -4341.79,-695.8 -5844.71,-2087.4c-1502.93,-1391.6 -2254.39,-3117.18 -2254.39,-5176.75c0,-2059.57 751.463,-3785.16 2254.39,-5176.75c1502.93,-1391.6 3451.17,-2087.4 5844.71,-2087.4c2393.55,-0 4341.79,667.966 5844.71,2003.9c1502.93,1335.94 2254.39,3005.85 2254.39,5009.75c0,2170.9 -751.462,3966.06 -2254.39,5385.5c-1502.93,1419.43 -3451.17,2129.15 -5844.71,2129.15Z" style="fill:#fff;fill-rule:nonzero;"/><path d="M380058,137370c-4787.08,-0 -9087.17,-988.038 -12900.1,-2964.11c-3812.98,-1976.07 -6791,-4717.54 -8934.08,-8224.38c-2143.07,-3506.83 -3214.6,-7486.79 -3214.6,-11939.9c-0,-4453.12 1071.53,-8433.08 3214.6,-11939.9c2143.06,-3506.83 5121.08,-6248.29 8934.08,-8224.38c3812.98,-1976.08 8113.04,-2964.11 12900.1,-2964.11c4731.46,-0 8864.5,988.033 12399.2,2964.11c3534.66,1976.07 6109.12,4801.04 7723.38,8474.83l-10103,5427.25c-2337.89,-4119.14 -5705.54,-6178.71 -10103,-6178.71c-3395.5,-0 -6206.54,1113.28 -8433.08,3339.84c-2226.56,2226.56 -3339.84,5260.25 -3339.84,9101.08c-0,3840.82 1113.28,6874.5 3339.84,9101.08c2226.56,2226.56 5037.58,3339.84 8433.08,3339.84c4453.12,0 7820.79,-2059.57 10103,-6178.71l10103,5510.75c-1614.25,3562.49 -4188.71,6345.71 -7723.38,8349.58c-3534.67,2003.9 -7667.71,3005.86 -12399.2,3005.86l0,-0.016Z" style="fill:#fff;fill-rule:nonzero;"/><path d="M428488,137370c-4731.46,-0 -8975.83,-988.038 -12733.1,-2964.11c-3757.32,-1976.07 -6693.58,-4717.54 -8808.83,-8224.38c-2115.23,-3506.83 -3172.85,-7486.79 -3172.85,-11939.9c-0,-4453.12 1057.62,-8433.08 3172.85,-11939.9c2115.23,-3506.83 5051.5,-6248.29 8808.83,-8224.38c3757.32,-1976.08 8001.71,-2964.11 12733.1,-2964.11c4731.46,-0 8961.92,988.033 12691.4,2964.11c3729.49,1976.07 6651.83,4717.54 8767.08,8224.38c2115.23,3506.83 3172.85,7486.79 3172.85,11939.9c0,4453.12 -1057.62,8433.08 -3172.85,11939.9c-2115.23,3506.83 -5037.58,6248.29 -8767.08,8224.38c-3729.49,1976.07 -7959.96,2964.11 -12691.4,2964.11Zm0,-10687.5c3339.84,-0 6081.29,-1127.2 8224.38,-3381.59c2143.07,-2254.39 3214.6,-5274.17 3214.6,-9059.33c-0,-3785.15 -1071.53,-6804.92 -3214.6,-9059.33c-2143.06,-2254.39 -4884.5,-3381.59 -8224.38,-3381.59c-3339.84,-0 -6095.21,1127.2 -8266.12,3381.59c-2170.9,2254.4 -3256.35,5274.17 -3256.35,9059.33c0,3785.15 1085.45,6804.92 3256.35,9059.33c2170.9,2254.4 4926.25,3381.59 8266.12,3381.59Z" style="fill:#fff;fill-rule:nonzero;"/><rect x="461800" y="74748.3" width="13025.4" height="61954.2" style="fill:#fff;"/><path d="M505050,91113.3c6958,0 12301.8,1656.01 16031.2,4968c3729.49,3312.01 5594.25,8307.83 5594.25,14987.5l0,25633.3l-12190.4,-0l0,-5594.25c-2449.22,4174.79 -7013.67,6262.21 -13693.3,6262.21c-3451.17,-0 -6443.12,-584.475 -8975.83,-1753.42c-2532.71,-1168.94 -4467.04,-2783.2 -5802.96,-4842.75c-1335.93,-2059.57 -2003.9,-4397.46 -2003.9,-7013.67c0,-4174.79 1572.51,-7458.96 4717.54,-9852.54c3145.02,-2393.55 8001.71,-3590.33 14570,-3590.33l10353.5,-0c0,-2838.87 -862.791,-5023.67 -2588.38,-6554.46c-1725.58,-1530.76 -4313.96,-2296.14 -7765.12,-2296.14c-2393.55,-0 -4745.33,375.733 -7055.42,1127.2c-2310.05,751.466 -4272.21,1767.33 -5886.46,3047.6l-4675.79,-9101.08c2449.22,-1725.59 5385.5,-3061.52 8808.83,-4007.81c3423.34,-946.291 6944.08,-1419.43 10562.2,-1419.43l-0.054,0.033Zm-1001.95,37489.7c2226.56,-0 4202.62,-514.896 5928.21,-1544.68c1725.59,-1029.78 2950.2,-2546.62 3673.83,-4550.54l0,-4592.29l-8934.08,0c-5343.75,0 -8015.62,1753.42 -8015.62,5260.25c-0,1669.92 654.05,2991.94 1962.15,3966.06c1308.1,974.121 3103.27,1461.18 5385.5,1461.18l0.021,0.021Z" style="fill:#fff;fill-rule:nonzero;"/><path d="M553562,137370c-3729.49,-0 -7375.5,-459.229 -10938,-1377.68c-3562.5,-918.458 -6401.38,-2073.49 -8516.58,-3465.08l4341.79,-9351.54c2003.9,1280.27 4425.29,2323.97 7264.17,3131.1c2838.87,807.13 5622.08,1210.69 8349.58,1210.69c5510.75,0 8266.12,-1363.77 8266.12,-4091.3c0,-1280.27 -751.463,-2198.73 -2254.39,-2755.37c-1502.92,-556.641 -3812.98,-1029.79 -6930.17,-1419.43c-3673.83,-556.642 -6707.5,-1196.78 -9101.08,-1920.41c-2393.55,-723.634 -4467.04,-2003.9 -6220.46,-3840.82c-1753.42,-1836.91 -2630.12,-4453.12 -2630.12,-7848.62c0,-2838.86 821.046,-5357.67 2463.13,-7556.38c1642.09,-2198.73 4035.64,-3910.4 7180.67,-5135c3145.02,-1224.61 6860.58,-1836.91 11146.7,-1836.91c3172.85,0 6331.79,347.9 9476.79,1043.7c3145.02,695.8 5747.29,1656.01 7806.88,2880.61l-4341.79,9268.04c-3952.15,-2226.56 -8266.12,-3339.84 -12941.9,-3339.84c-2783.2,-0 -4870.58,389.646 -6262.21,1168.94c-1391.6,779.295 -2087.4,1781.25 -2087.4,3005.86c0,1391.6 751.463,2365.72 2254.39,2922.36c1502.93,556.642 3896.48,1085.45 7180.67,1586.42c3673.83,612.304 6679.67,1266.35 9017.58,1962.16c2337.89,695.8 4369.62,1962.15 6095.21,3799.07c1725.59,1836.91 2588.38,4397.46 2588.38,7681.62c0,2783.2 -834.962,5260.25 -2504.88,7431.17c-1669.92,2170.9 -4105.22,3854.73 -7305.92,5051.5c-3200.68,1196.77 -6999.75,1795.16 -11397.2,1795.16l-0.021,-0.016Z" style="fill:#fff;fill-rule:nonzero;"/></g></g></g><g><g><path d="M345658,154799l-0,58447.1l-13526.4,0l-0,-23963.3l-26551.7,-0l0,23963.3l-13526.4,0l0,-58447.1l13526.4,-0l0,23044.9l26551.7,0l-0,-23044.9l13526.4,-0Z" style="fill:#fff;fill-rule:nonzero;"/><path d="M402602,190953c0,166.991 -83.495,1335.93 -250.487,3506.83l-33982.9,-0c612.304,2783.2 2059.57,4981.92 4341.79,6596.21c2282.22,1614.25 5121.08,2421.38 8516.58,2421.38c2337.89,0 4411.38,-347.9 6220.46,-1043.7c1809.08,-695.8 3492.92,-1795.17 5051.5,-3298.09l6930.17,7514.62c-4230.46,4842.79 -10409.2,7264.17 -18536.1,7264.17c-5065.42,0 -9546.38,-988.037 -13442.9,-2964.11c-3896.48,-1976.07 -6902.33,-4717.54 -9017.58,-8224.38c-2115.23,-3506.83 -3172.85,-7486.79 -3172.85,-11939.9c-0,-4397.46 1043.7,-8363.5 3131.1,-11898.2c2087.4,-3534.67 4954.08,-6290.04 8600.08,-8266.12c3645.99,-1976.08 7723.38,-2964.11 12232.2,-2964.11c4397.46,0 8377.42,946.288 11939.9,2838.86c3562.5,1892.58 6359.62,4606.21 8391.33,8140.88c2031.74,3534.66 3047.6,7639.88 3047.6,12315.7l0.091,-0.025Zm-23295.4,-13442.9c-2950.19,-0 -5427.25,834.958 -7431.12,2504.88c-2003.9,1669.92 -3228.51,3952.15 -3673.83,6846.67l22126.5,0c-445.313,-2838.87 -1669.92,-5107.17 -3673.83,-6804.92c-2003.9,-1697.75 -4453.12,-2546.63 -7347.67,-2546.63l-0.017,-0Z" style="fill:#fff;fill-rule:nonzero;"/><path d="M411286,168326l13025.4,0l0,44920.8l-13025.4,-0l0,-44920.8Zm6512.71,-6262.21c-2393.55,0 -4341.79,-695.8 -5844.71,-2087.4c-1502.93,-1391.6 -2254.39,-3117.18 -2254.39,-5176.75c-0,-2059.57 751.466,-3785.15 2254.39,-5176.75c1502.92,-1391.6 3451.17,-2087.4 5844.71,-2087.4c2393.55,-0 4341.79,667.967 5844.71,2003.9c1502.93,1335.94 2254.4,3005.85 2254.4,5009.75c-0,2170.9 -751.467,3966.06 -2254.4,5385.5c-1502.92,1419.43 -3451.17,2129.15 -5844.71,2129.15Z" style="fill:#fff;fill-rule:nonzero;"/><path d="M482175,151292l0,61954.2l-12440.9,-0l0,-5176.75c-3228.51,3896.48 -7904.29,5844.71 -14027.3,5844.71c-4230.46,0 -8057.38,-946.288 -11480.7,-2838.86c-3423.33,-1892.58 -6109.12,-4592.29 -8057.38,-8099.12c-1948.24,-3506.83 -2922.36,-7570.29 -2922.36,-12190.4c0,-4620.12 974.121,-8683.58 2922.36,-12190.4c1948.24,-3506.83 4634.04,-6206.54 8057.38,-8099.12c3423.34,-1892.58 7250.25,-2838.86 11480.7,-2838.86c5733.42,-0 10214.3,1809.08 13442.9,5427.25l0,-21792.5l13025.4,0l0,-0.108Zm-24213.8,51934.6c3284.18,0 6011.71,-1127.2 8182.62,-3381.59c2170.89,-2254.39 3256.34,-5274.17 3256.34,-9059.33c0,-3785.15 -1085.45,-6804.92 -3256.34,-9059.33c-2170.9,-2254.39 -4898.42,-3381.59 -8182.62,-3381.59c-3339.84,0 -6095.21,1127.2 -8266.12,3381.59c-2170.9,2254.4 -3256.34,5274.17 -3256.34,9059.33c0,3785.15 1085.45,6804.92 3256.34,9059.33c2170.9,2254.39 4926.25,3381.59 8266.12,3381.59Z" style="fill:#fff;fill-rule:nonzero;"/><path d="M538200,190953c0,166.991 -83.496,1335.93 -250.492,3506.83l-33982.9,-0c612.304,2783.2 2059.57,4981.92 4341.79,6596.21c2282.22,1614.25 5121.08,2421.38 8516.58,2421.38c2337.89,0 4411.38,-347.9 6220.46,-1043.7c1809.08,-695.8 3492.92,-1795.17 5051.5,-3298.09l6930.17,7514.62c-4230.46,4842.79 -10409.2,7264.17 -18536.1,7264.17c-5065.42,0 -9546.38,-988.037 -13442.9,-2964.11c-3896.48,-1976.07 -6902.33,-4717.54 -9017.58,-8224.38c-2115.23,-3506.83 -3172.85,-7486.79 -3172.85,-11939.9c0,-4397.46 1043.7,-8363.5 3131.1,-11898.2c2087.4,-3534.67 4954.08,-6290.04 8600.08,-8266.12c3646,-1976.08 7723.38,-2964.11 12232.2,-2964.11c4397.46,0 8377.42,946.288 11939.9,2838.86c3562.5,1892.58 6359.62,4606.21 8391.33,8140.88c2031.73,3534.66 3047.6,7639.88 3047.6,12315.7l0.096,-0.025Zm-23295.4,-13442.9c-2950.19,-0 -5427.25,834.958 -7431.17,2504.88c-2003.9,1669.92 -3228.51,3952.15 -3673.83,6846.67l22126.5,0c-445.309,-2838.87 -1669.92,-5107.17 -3673.82,-6804.92c-2003.9,-1697.75 -4453.12,-2546.63 -7347.67,-2546.63l0.021,-0Z" style="fill:#fff;fill-rule:nonzero;"/><path d="M559325,174254c1558.59,-2170.9 3659.91,-3812.98 6303.96,-4926.25c2644.04,-1113.28 5691.67,-1669.92 9142.83,-1669.92l-0,12023.4c-1447.26,-111.329 -2421.38,-166.992 -2922.36,-166.992c-3729.49,0 -6651.83,1043.7 -8767.08,3131.1c-2115.23,2087.4 -3172.85,5218.5 -3172.85,9393.29l-0,21208l-13025.4,-0l-0,-44920.8l12440.9,-0l-0,5928.21l-0.038,-0.021Z" style="fill:#fff;fill-rule:nonzero;"/></g></g><g id="Logo-New" serif:id="Logo New"><g><path d="M208705,133205c1578.71,-385.971 3244.98,61.2 4417,1187.1c1171.1,1125.9 1686.04,2772.4 1363.14,4365.21c-4912.17,24252.1 -20546.9,101429 -24438.5,120642c-131.787,651.442 -659.912,1148.49 -1317.93,1239.81c-658.038,91.317 -1301.95,-242.883 -1606.03,-833.125c-6041.88,-11716.5 -23774.8,-46111.2 -29562.5,-57336.7c-1076.96,-2088.96 -3473.75,-3134.85 -5737.79,-2503.16c-5458.17,1523.16 -15251.5,4256.96 -19992.4,5579.62c-1687.92,470.692 -3499.17,28.246 -4780.42,-1167.33c-14594.4,-13621.9 -102219,-95408.3 -120067,-112067c-640.904,-598.734 -907.587,-1496.83 -696.808,-2347.85c210.766,-851.008 865.887,-1521.29 1711.91,-1750.98c18853.8,-5124.96 95552.1,-25971.5 109446,-29747.9c1220.04,-331.65 2489.98,333.35 2911.72,1525.33c4309.71,12170.1 25917.5,73189.2 30176.4,85215.4c414.221,1170.14 1647.43,1835.71 2853.35,1541.06c8554.42,-2093.66 40734.9,-9971.25 55320,-13541.9l-0.121,-0.034l0.263,0.421Z" style="fill:#fff;"/></g><g><path d="M163780,46393.8c-2571.88,684.287 -4182.62,3234.06 -3695.9,5850.54c2097.43,11275.2 7454.88,40081.2 9696.33,52135.8c260.762,1398.91 1093.9,2624.6 2298.89,3381.5c1204.98,755.937 2671.67,973.383 4044.22,599.65c10594.4,-2885.36 33979.5,-9253.88 42194.2,-11490.6c1800.88,-490.467 3189.44,-1927.03 3617.78,-3742.97c2348.77,-9963.79 10050.3,-42624.2 13700.1,-58099.2c410.45,-1742.03 -123.333,-3571.82 -1407.38,-4819.17c-1283.12,-1247.43 -3127.31,-1729.24 -4856.67,-1268.99c-16416.9,4368.33 -52797.1,14048.8 -65591.7,17453.5l0.033,-0.05l0.117,-0.013Z" style="fill:#fff;"/></g></g></svg>