<?xml version="1.0" encoding="UTF-8" standalone="no"?><!DOCTYPE svg PUBLIC "-//W3C//DTD SVG 1.1//EN" "http://www.w3.org/Graphics/SVG/1.1/DTD/svg11.dtd"><svg width="100%" height="100%" viewBox="0 0 1167 1167" version="1.1" xmlns="http://www.w3.org/2000/svg" xmlns:xlink="http://www.w3.org/1999/xlink" xml:space="preserve" xmlns:serif="http://www.serif.com/" style="fill-rule:evenodd;clip-rule:evenodd;stroke-linecap:round;stroke-linejoin:round;stroke-miterlimit:1.5;"><g><circle cx="581.596" cy="544.788" r="444.3" style="fill:#6c757d;"/><path d="M810.029,414.571c0,-55.834 -45.329,-101.163 -101.162,-101.163l-254.538,0c-55.833,0 -101.166,45.33 -101.166,101.163l-0,253.754c-0,55.833 45.333,101.163 101.166,101.163l254.538,-0c55.833,-0 101.162,-45.33 101.162,-101.163l0,-253.754Zm-69.441,-0c-0,-17.504 -14.217,-31.717 -31.721,-31.717l-254.538,0c-17.508,0 -31.721,14.213 -31.721,31.717l0,253.754c0,17.504 14.213,31.717 31.721,31.717l254.538,-0c17.504,-0 31.721,-14.213 31.721,-31.717l-0,-253.754Z" style="fill:#fff;"/><path d="M391.558,432.963l190.038,129.679l190.041,-129.68" style="fill:none;stroke:#fff;stroke-width:69.46px;"/></g></svg>